# xmcd
#
# Track frame offsets: 
#        182
#        15380
#        33272
#        48005
#        71067
#        84917
#        96812
#        108985
#        139560
#        158740
#        182472
#
# Disc length: 2550 seconds
#
# Revision: 0
# Processed by: cddbd v1.4PL0 Copyright (c) Steve Scherf et al.
# Submitted via: ExactAudioCopy v0.90b3
#
DISCID=7609f40b
DTITLE=Maxwell Street Jimmy Davis - Chicago Blues Session Vol 11
DYEAR=1900
DGENRE=Blues
TTITLE0=Men's A Fool
TTITLE1=Two Trains Running
TTITLE2=Dry In The Dark
TTITLE3=I've Been A Fool A Long Time
TTITLE4=That's All Right
TTITLE5=In Your Bedroom
TTITLE6=One-Eyed Woman
TTITLE7=Going Upstairs
TTITLE8=Jimmy Davis Blues
TTITLE9=Big Leg Woman
TTITLE10=Dust My Broom
EXTD=
EXTT0=
EXTT1=
EXTT2=
EXTT3=
EXTT4=
EXTT5=
EXTT6=
EXTT7=
EXTT8=
EXTT9=
EXTT10=
PLAYORDER=
